# xmcd
#
# Track frame offsets:
# 150
# 23575
# 38509
# 59139
# 74759
# 90960
# 110214
# 121228
# 134611
# 150871
# 162604
# 178063
#
# Disc length: 2610 seconds
#
#
# Revision: 0
# Processed by: cddbd v1.5.2PL0 Copyright (c) Steve Scherf et al.
# Submitted via: FreeRIP 2.90 
#
DISCID=a40a300c
DTITLE=Several artists  - 40 Años con Nino
DYEAR=1900
DGENRE=Pop
TTITLE0=Libre (Marta Sanchez)
TTITLE1=America , America (David Bisbal )
TTITLE2=Un beso y una flor (Paulina Rubio)
TTITLE3=Noelia (Luis Fonsi)
TTITLE4=Cartas amarilla (Amaia Montero)
TTITLE5=Amanecer (Raquel del Rosario y Alex Ubago)
TTITLE6=Tu cambiaras (David Summers)
TTITLE7=Mi gran amor (Merche)
TTITLE8=Como todos (Cristian castro)
TTITLE9=Sin darte cuenta (Tamara)
TTITLE10=Te quiero Te quiero (Rosario)
TTITLE11=Mi tierra (Jose Manuel Casañ)
EXTD=
EXTT0=
EXTT1=
EXTT2=
EXTT3=
EXTT4=
EXTT5=
EXTT6=
EXTT7=
EXTT8=
EXTT9=
EXTT10=
EXTT11=
PLAYORDER=
